<svg width="101" height="24" viewBox="0 0 101 24" fill="none" xmlns="http://www.w3.org/2000/svg">
<path d="M63.7874 16.8266H61.6255C61.6255 16.1382 61.6255 15.4761 61.6255 14.817C61.6255 13.1589 61.6782 11.4921 61.5523 9.83694C61.4263 8.1818 60.5563 7.37621 59.0945 7.24145C57.3573 7.08033 56.0859 7.75996 55.6026 9.23933C55.4022 9.93928 55.3035 10.6644 55.3096 11.3925C55.2657 13.1501 55.295 14.9078 55.295 16.768H53.2444V5.39298H55.1807C55.2188 6.11655 55.2569 6.77567 55.3096 7.71895C56.5224 5.94078 57.9666 4.99457 59.9616 5.23479C61.4263 5.41055 62.3051 6.04038 63.3422 7.66329C63.6585 7.29418 63.9281 6.928 64.2649 6.59991C65.7795 5.04437 67.6309 4.90083 69.5379 5.53359C71.2429 6.09897 72.1276 7.49339 72.2096 9.2159C72.3268 11.6913 72.2389 14.1784 72.2389 16.7739H70.1209C70.1209 15.0953 70.1414 13.4079 70.1209 11.7235C70.1338 10.8966 70.0651 10.0704 69.9158 9.25691C69.6229 7.87421 68.7441 7.26782 67.2793 7.2063C65.5217 7.15064 64.4231 7.75118 64.0218 9.08407C63.8697 9.64647 63.7948 10.2269 63.7992 10.8095C63.7699 12.7693 63.7874 14.7174 63.7874 16.8266Z" fill="#1F1F1F"/>
<path d="M80.8252 23.8544L90.4191 10.9795C89.0335 9.16915 87.6566 7.37047 86.148 5.41361H88.5765L91.67 9.35077L98.5923 0H101L92.874 10.9561L97.3648 16.7623H94.8924L91.6348 12.5878L83.2859 23.8544H80.8252Z" fill="#1F1F1F"/>
<path d="M45.6278 16.9674C43.4014 16.9674 41.3918 16.3815 40.3548 14.2284C39.2855 12.005 39.2474 9.63796 40.6096 7.51412C42.0597 5.24966 44.4326 4.96551 46.8464 5.25259C50.1918 5.64514 51.9759 8.08243 51.7151 11.6974C51.4749 15.116 49.3218 16.9674 45.6278 16.9674ZM45.7772 7.19188C43.1612 7.1743 41.8898 8.39881 41.8517 10.9767C41.8136 13.6308 43.1583 15.0779 45.6834 15.0779C48.2086 15.0779 49.4712 13.789 49.4917 11.1554C49.5005 8.44275 48.3521 7.21532 45.7772 7.19774V7.19188Z" fill="#1F1F1F"/>
<path d="M29.6273 7.77481C30.5266 6.42726 31.505 5.60995 32.8496 5.30529C35.3133 4.75162 37.8971 6.16361 38.19 8.59798C38.5357 11.2726 38.4507 14.0057 38.5562 16.8004H36.2419C36.2419 15.5642 36.2419 14.3631 36.2419 13.162C36.2419 12.1865 36.2595 11.211 36.2156 10.2326C36.1306 8.34312 35.2108 7.33832 33.5205 7.22407C31.4699 7.08639 30.0344 8.02674 29.7679 9.86057C29.6441 11.0721 29.5952 12.2902 29.6214 13.5077C29.6009 14.5653 29.6214 15.6257 29.6214 16.7711H27.4331V5.40782L29.4251 5.31701L29.6273 7.77481Z" fill="#1F1F1F"/>
<path d="M72.7573 5.37207H75.0569L79.0029 14.4533L82.9342 5.34863H84.9848C84.8953 5.68199 84.7887 6.01052 84.6655 6.33293C82.9899 10.1119 81.2205 13.8499 79.6591 17.6757C78.7539 19.8992 78.1667 20.9995 75.1667 20.9995C74.6291 20.9995 73.5001 20.9995 73.5001 20.9995V19.0159C73.5001 19.0159 74.5834 19.0159 75.1667 19.0159C76.3334 19.0159 77.473 18.4638 77.7608 16.8438C76.1691 13.1995 74.5013 9.37564 72.7573 5.37207Z" fill="#1F1F1F"/>
<path fill-rule="evenodd" clip-rule="evenodd" d="M20.5928 5.6748H14.854V11.5718L6.40553 5.6748V11.5718L14.854 17.4717V11.5747H20.5928V5.6748ZM6.40552 11.5717H0.666748V17.4716H6.40552V11.5717Z" fill="url(#paint0_linear_2161_80)"/>
<defs>
<linearGradient id="paint0_linear_2161_80" x1="14.9248" y1="5.68945" x2="4.41739" y2="8.3357" gradientUnits="userSpaceOnUse">
<stop stop-color="#73BD9A"/>
<stop offset="1" stop-color="#B744AB"/>
</linearGradient>
</defs>
</svg>
