<svg width="634" height="241" viewBox="0 0 634 241" fill="none" xmlns="http://www.w3.org/2000/svg">
<path d="M394.724 149.46H381.752C381.752 145.33 381.752 141.358 381.752 137.403C381.752 127.455 382.068 117.453 381.313 107.523C380.557 97.5918 375.337 92.7582 366.566 91.9497C356.143 90.983 348.515 95.0608 345.615 103.937C344.412 108.137 343.82 112.488 343.857 116.856C343.593 127.402 343.769 137.948 343.769 149.109H331.465V80.8588H343.083C343.312 85.2003 343.54 89.155 343.857 94.8147C351.134 84.1457 359.799 78.4684 371.769 79.9097C380.557 80.9643 385.83 84.7433 392.052 94.4807C393.95 92.2661 395.567 90.069 397.589 88.1004C406.676 78.7672 417.784 77.906 429.227 81.7025C439.456 85.0948 444.764 93.4613 445.257 103.796C445.96 118.649 445.432 133.571 445.432 149.144H432.724C432.724 139.073 432.847 128.949 432.724 118.842C432.802 113.88 432.39 108.923 431.494 104.042C429.736 95.7463 424.463 92.1079 415.675 91.7388C405.129 91.4048 398.538 95.008 396.13 103.005C395.217 106.38 394.768 109.863 394.794 113.358C394.618 125.117 394.724 136.805 394.724 149.46Z" fill="#FEFEFE"/>
<path d="M496.949 191.627L554.513 114.377C546.199 103.515 537.938 92.7228 528.886 80.9816H543.457L562.018 104.605L603.552 48.5H618L569.242 114.237L596.187 149.074H581.352L561.807 124.027L511.714 191.627H496.949Z" fill="#FEFEFE"/>
<path d="M285.766 150.304C272.408 150.304 260.35 146.788 254.128 133.869C247.713 120.529 247.484 106.327 255.657 93.5837C264.358 79.997 278.595 78.2921 293.078 80.0146C313.151 82.3698 323.855 96.9936 322.29 118.683C320.849 139.195 307.93 150.304 285.766 150.304ZM286.663 91.6503C270.967 91.5448 263.338 98.8919 263.11 114.359C262.881 130.284 270.949 138.967 286.1 138.967C301.251 138.967 308.827 131.233 308.95 115.432C309.002 99.1555 302.112 91.7909 286.663 91.6855V91.6503Z" fill="#FEFEFE"/>
<path d="M189.763 95.1479C195.159 87.0626 201.029 82.1587 209.097 80.3307C223.879 77.0088 239.381 85.4807 241.139 100.087C243.213 116.134 242.703 132.533 243.336 149.301H229.451C229.451 141.884 229.451 134.678 229.451 127.471C229.451 121.618 229.556 115.765 229.292 109.895C228.783 98.5577 223.264 92.5289 213.122 91.8435C200.818 91.0174 192.206 96.6595 190.606 107.662C189.864 114.932 189.57 122.24 189.727 129.545C189.604 135.891 189.727 142.253 189.727 149.126H176.598V80.9459L188.55 80.4011L189.763 95.1479Z" fill="#FEFEFE"/>
<path d="M448.543 80.7353H462.341L486.017 135.223L509.605 80.5947H521.908C521.371 82.5948 520.732 84.566 519.993 86.5005C509.939 109.174 499.322 131.602 489.954 154.557C484.523 167.898 481 174.5 463 174.5C459.774 174.5 453 174.5 453 174.5V162.598C453 162.598 459.5 162.598 463 162.598C470 162.598 476.837 159.286 478.564 149.565C469.014 127.7 459.007 104.757 448.543 80.7353Z" fill="#FEFEFE"/>
<path fill-rule="evenodd" clip-rule="evenodd" d="M135.556 82.5459H101.124V117.928L50.4327 82.5459V117.928L101.124 153.327L101.124 117.945H135.556V82.5459ZM50.4326 117.927H16V153.327H50.4326V117.927Z" fill="url(#paint0_linear_2071_31673)"/>
<defs>
<linearGradient id="paint0_linear_2071_31673" x1="101.549" y1="82.6338" x2="38.5039" y2="98.5113" gradientUnits="userSpaceOnUse">
<stop stop-color="#73BD9A"/>
<stop offset="1" stop-color="#B744AB"/>
</linearGradient>
</defs>
</svg>
