<svg width="128" height="128" viewBox="0 0 128 128" fill="none" xmlns="http://www.w3.org/2000/svg">
<path d="M57.3333 13.0661C61.0134 9.91939 67.04 9.91939 70.7733 13.0661L79.2 20.32C80.8 21.7066 83.7866 22.8265 85.9199 22.8265H94.9867C100.64 22.8265 105.28 27.4661 105.28 33.1194V42.1865C105.28 44.2665 106.4 47.3065 107.787 48.9065L115.04 57.333C118.187 61.013 118.187 67.0397 115.04 70.7731L107.787 79.1995C106.4 80.7995 105.28 83.7862 105.28 85.9196V94.9866C105.28 100.64 100.64 105.28 94.9867 105.28H85.9199C83.8399 105.28 80.8 106.399 79.2 107.786L70.7733 115.039C67.0933 118.186 61.0667 118.186 57.3333 115.039L48.9068 107.786C47.3068 106.399 44.32 105.28 42.1867 105.28H32.96C27.3066 105.28 22.6667 100.64 22.6667 94.9866V85.8662C22.6667 83.7862 21.5467 80.7995 20.2134 79.1995L13.0134 70.7197C9.92003 67.0397 9.92003 61.0664 13.0134 57.3864L20.2134 48.9065C21.5467 47.3065 22.6667 44.3199 22.6667 42.2399V33.1194C22.6667 27.4661 27.3066 22.8265 32.96 22.8265H42.1867C44.2667 22.8265 47.3068 21.7066 48.9068 20.32L57.3333 13.0661Z" stroke="#409C43" stroke-width="4" stroke-linecap="round" stroke-linejoin="round"/>
<path d="M48 67.6797L56.5867 76.2663L79.52 53.333" stroke="#409C43" stroke-width="4" stroke-linecap="round" stroke-linejoin="round"/>
</svg>
